<svg xmlns="http://www.w3.org/2000/svg" width="1100" height="850" version="1.1">
<line x1="267" y1="267" x2="367" y2="267" stroke="black" stroke-width="2" />
<line x1="267" y1="267" x2="267" y2="204" stroke="black" stroke-width="2" />
<line x1="267" y1="267" x2="267" y2="299" stroke="black" stroke-width="2" />
<line x1="842" y1="593" x2="744" y2="593" stroke="black" stroke-width="2" />
<line x1="842" y1="593" x2="842" y2="414" stroke="black" stroke-width="2" />
<line x1="267" y1="502" x2="267" y2="593" stroke="black" stroke-width="2" />
<line x1="267" y1="502" x2="267" y2="467" stroke="black" stroke-width="2" />
<line x1="267" y1="502" x2="540" y2="502" stroke="black" stroke-width="2" />
<line x1="540" y1="502" x2="540" y2="593" stroke="black" stroke-width="2" />
<line x1="540" y1="502" x2="540" y2="467" stroke="black" stroke-width="2" />
<line x1="367" y1="267" x2="367" y2="204" stroke="black" stroke-width="2" />
<line x1="367" y1="267" x2="367" y2="299" stroke="black" stroke-width="2" />
<line x1="267" y1="204" x2="367" y2="204" stroke="black" stroke-width="2" />
<line x1="617" y1="204" x2="540" y2="204" stroke="black" stroke-width="2" />
<line x1="617" y1="204" x2="617" y2="414" stroke="black" stroke-width="2" />
<line x1="617" y1="204" x2="842" y2="204" stroke="black" stroke-width="2" />
<line x1="267" y1="593" x2="540" y2="593" stroke="black" stroke-width="2" />
<line x1="540" y1="593" x2="617" y2="593" stroke="black" stroke-width="2" />
<line x1="267" y1="299" x2="321" y2="299" stroke="black" stroke-width="2" />
<line x1="267" y1="299" x2="267" y2="382" stroke="black" stroke-width="2" />
<line x1="267" y1="382" x2="321" y2="382" stroke="black" stroke-width="2" />
<line x1="267" y1="382" x2="267" y2="467" stroke="black" stroke-width="2" />
<line x1="367" y1="299" x2="367" y2="382" stroke="black" stroke-width="2" />
<line x1="367" y1="299" x2="321" y2="299" stroke="black" stroke-width="2" />
<line x1="842" y1="204" x2="842" y2="414" stroke="black" stroke-width="2" />
<line x1="744" y1="414" x2="842" y2="414" stroke="black" stroke-width="2" />
<line x1="744" y1="414" x2="617" y2="414" stroke="black" stroke-width="2" />
<line x1="744" y1="414" x2="744" y2="564" stroke="black" stroke-width="2" />
<line x1="540" y1="467" x2="367" y2="467" stroke="black" stroke-width="2" />
<line x1="540" y1="467" x2="540" y2="204" stroke="black" stroke-width="2" />
<line x1="367" y1="467" x2="367" y2="382" stroke="black" stroke-width="2" />
<line x1="367" y1="467" x2="267" y2="467" stroke="black" stroke-width="2" />
<line x1="321" y1="299" x2="321" y2="382" stroke="black" stroke-width="2" />
<line x1="367" y1="204" x2="540" y2="204" stroke="black" stroke-width="2" />
<line x1="617" y1="414" x2="617" y2="564" stroke="black" stroke-width="2" />
<line x1="617" y1="593" x2="744" y2="593" stroke="black" stroke-width="2" />
<line x1="617" y1="593" x2="617" y2="564" stroke="black" stroke-width="2" />
<line x1="321" y1="382" x2="367" y2="382" stroke="black" stroke-width="2" />
<line x1="617" y1="564" x2="744" y2="564" stroke="black" stroke-width="2" />
<line x1="744" y1="564" x2="744" y2="593" stroke="black" stroke-width="2" />
</svg>