<svg xmlns="http://www.w3.org/2000/svg" width="1100" height="850" version="1.1">
<line x1="875" y1="208" x2="875" y2="604" stroke="black" stroke-width="2" />
<line x1="875" y1="208" x2="855" y2="208" stroke="black" stroke-width="2" />
<line x1="462" y1="604" x2="292" y2="604" stroke="black" stroke-width="2" />
<line x1="462" y1="604" x2="462" y2="208" stroke="black" stroke-width="2" />
<line x1="462" y1="604" x2="481" y2="604" stroke="black" stroke-width="2" />
<line x1="292" y1="604" x2="292" y2="208" stroke="black" stroke-width="2" />
<line x1="292" y1="604" x2="280" y2="604" stroke="black" stroke-width="2" />
<line x1="855" y1="208" x2="855" y2="604" stroke="black" stroke-width="2" />
<line x1="855" y1="208" x2="672" y2="208" stroke="black" stroke-width="2" />
<line x1="462" y1="208" x2="481" y2="208" stroke="black" stroke-width="2" />
<line x1="462" y1="208" x2="292" y2="208" stroke="black" stroke-width="2" />
<line x1="280" y1="604" x2="280" y2="212" stroke="black" stroke-width="2" />
<line x1="855" y1="604" x2="875" y2="604" stroke="black" stroke-width="2" />
<line x1="855" y1="604" x2="672" y2="604" stroke="black" stroke-width="2" />
<line x1="481" y1="208" x2="655" y2="208" stroke="black" stroke-width="2" />
<line x1="481" y1="208" x2="481" y2="604" stroke="black" stroke-width="2" />
<line x1="280" y1="208" x2="292" y2="208" stroke="black" stroke-width="2" />
<line x1="280" y1="208" x2="280" y2="212" stroke="black" stroke-width="2" />
<line x1="655" y1="604" x2="655" y2="208" stroke="black" stroke-width="2" />
<line x1="655" y1="604" x2="481" y2="604" stroke="black" stroke-width="2" />
<line x1="655" y1="604" x2="672" y2="604" stroke="black" stroke-width="2" />
<line x1="672" y1="208" x2="655" y2="208" stroke="black" stroke-width="2" />
<line x1="672" y1="208" x2="672" y2="604" stroke="black" stroke-width="2" />
</svg>